<svg xmlns="http://www.w3.org/2000/svg" width="60" height="60" viewBox="0 0 60 60">
    <path fill="#4F80BA" fill-rule="evenodd" d="M0 30C0 13.431 13.431 0 30 0c16.569 0 30 13.431 30 30 0 16.569-13.431 30-30 30C13.431 60 0 46.569 0 30zm49.099 10.254a2.698 2.698 0 0 0-.134-.256c-.681-1.228-1.985-2.735-3.909-4.522l-.04-.042-.02-.02-.022-.02h-.02c-.873-.833-1.426-1.393-1.658-1.679-.423-.545-.518-1.099-.287-1.658.165-.423.778-1.316 1.843-2.68.559-.723 1.003-1.304 1.329-1.74 2.361-3.139 3.384-5.144 3.07-6.017l-.121-.204c-.083-.123-.293-.236-.634-.337-.341-.103-.778-.12-1.31-.052l-5.895.04c-.095-.032-.232-.03-.409.012l-.267.06-.101.053-.081.06a.89.89 0 0 0-.226.215c-.081.102-.15.222-.204.359a33.455 33.455 0 0 1-2.19 4.604 44.12 44.12 0 0 1-1.392 2.2c-.424.62-.778 1.079-1.064 1.372a7.36 7.36 0 0 1-.778.705c-.233.178-.409.253-.532.226a21.82 21.82 0 0 1-.348-.083 1.344 1.344 0 0 1-.46-.501 2.227 2.227 0 0 1-.235-.799 9.111 9.111 0 0 1-.073-.828c-.006-.231-.003-.56.011-.982.013-.423.021-.71.021-.86 0-.519.01-1.082.03-1.689.02-.607.038-1.088.051-1.442.014-.355.02-.73.02-1.126 0-.395-.024-.705-.071-.931a3.154 3.154 0 0 0-.215-.655 1.098 1.098 0 0 0-.42-.49 2.351 2.351 0 0 0-.684-.278c-.724-.163-1.645-.251-2.763-.266-2.538-.027-4.168.137-4.892.492-.287.15-.546.354-.777.613-.246.3-.28.465-.103.492.819.123 1.398.416 1.74.88l.122.246c.096.177.192.49.287.94.095.45.157.949.183 1.494.069.996.069 1.849 0 2.56a29.518 29.518 0 0 1-.194 1.656c-.06.396-.153.716-.276.963a3.886 3.886 0 0 1-.246.45.35.35 0 0 1-.102.102 1.518 1.518 0 0 1-.553.103c-.19 0-.422-.096-.695-.287a4.907 4.907 0 0 1-.85-.789c-.292-.333-.623-.8-.993-1.402a24.52 24.52 0 0 1-1.145-2.128l-.328-.593a48.332 48.332 0 0 1-.839-1.669 31.782 31.782 0 0 1-.94-2.118 1.36 1.36 0 0 0-.492-.655l-.102-.06a1.472 1.472 0 0 0-.328-.175 2.182 2.182 0 0 0-.47-.133l-5.608.04c-.573 0-.962.13-1.167.39l-.082.122c-.04.07-.061.178-.061.328 0 .15.04.335.123.553a67.49 67.49 0 0 0 2.67 5.566c.963 1.788 1.798 3.227 2.507 4.318a50.885 50.885 0 0 0 2.17 3.09c.737.97 1.225 1.59 1.463 1.863.239.274.427.477.563.614l.511.491c.328.328.808.72 1.444 1.176.634.458 1.337.908 2.107 1.352.772.443 1.668.805 2.692 1.084a9.277 9.277 0 0 0 2.988.338h2.354c.477-.04.839-.192 1.084-.45l.081-.102c.055-.082.106-.209.153-.38a2.08 2.08 0 0 0 .072-.562 6.79 6.79 0 0 1 .133-1.586c.102-.47.218-.824.349-1.063.13-.24.275-.44.44-.604.163-.164.28-.262.348-.297.067-.034.121-.057.163-.072.328-.11.713-.002 1.157.318.443.321.858.716 1.248 1.187.39.47.857 1 1.401 1.586.547.586 1.024 1.023 1.433 1.31l.41.245c.273.164.627.314 1.064.45.436.137.818.172 1.145.103l5.24-.082c.518 0 .921-.086 1.207-.256.287-.17.456-.359.511-.562.056-.205.058-.437.011-.697a2.657 2.657 0 0 0-.143-.542z"/>
</svg>
