<svg xmlns="http://www.w3.org/2000/svg" width="40" height="40" viewBox="0 0 40 40">
    <path fill="#9B9B9B" fill-rule="evenodd" d="M19.892 0c10.986 0 19.892 8.906 19.892 19.892 0 10.986-8.906 19.892-19.892 19.892C8.906 39.784 0 30.878 0 19.892 0 8.906 8.906.001 19.892.001zm-6.225 9.333c-1.29 0-2.334 1.08-2.334 2.407 0 1.329 1.044 2.408 2.334 2.408 1.287 0 2.333-1.08 2.333-2.408 0-1.328-1.046-2.407-2.333-2.407zm-2.013 20h4.025v-13.36h-4.025v13.36zM18 15.673v13.66h4.059v-6.758c0-1.781.324-3.507 2.438-3.507 2.082 0 2.11 2.038 2.11 3.622v6.643h4.06V21.84c0-3.677-.76-6.507-4.873-6.507-1.976 0-3.301 1.133-3.844 2.207h-.054v-1.867H18z"/>
</svg>
