<svg xmlns="http://www.w3.org/2000/svg" width="33" height="33" viewBox="0 0 33 33">
    <path fill="#8AA3C7" fill-rule="evenodd" d="M20.786 1.718l9.152 15.375a1.838 1.838 0 0 1-.686 2.561 1.965 1.965 0 0 1-2.63-.704L17.466 3.575c-.536-.9-.228-2.05.687-2.563a1.97 1.97 0 0 1 2.632.706zm-4.9 3.707l.216-.43 8.567 14.39-.492-.035c-3.455-.24-6.96.531-10.05 1.954l-4.98-8.364c2.817-1.884 5.226-4.493 6.74-7.515zm-8.339 8.542l4.862 8.166-5.806 3.248a2.944 2.944 0 0 1-3.946-1.057L.712 21.058a2.76 2.76 0 0 1 1.03-3.843l5.805-3.248zm10.04 9.436a2.758 2.758 0 0 1-1.03 3.842l-1.595.892.742 1.203c.536.901.229 2.05-.687 2.562a1.965 1.965 0 0 1-2.63-.704l-3.153-5.112 3.317-1.856 1.413 2.29 1.621-.908a.918.918 0 0 0 .343-1.28l-.829-1.395c.588-.265 1.183-.5 1.793-.701l.695 1.167zM24.75 2.92a.95.95 0 0 1 1.173-.656.95.95 0 0 1 .687 1.154l-.485 1.812a.95.95 0 0 1-1.173.656.95.95 0 0 1-.687-1.155l.485-1.811zm6.673 8.582a.95.95 0 0 1 .687 1.155.95.95 0 0 1-1.173.656l-1.86-.498a.95.95 0 0 1-.687-1.155.95.95 0 0 1 1.172-.656l1.86.498zm-2.507-2.897a.981.981 0 0 1-1.315-.353.92.92 0 0 1 .343-1.28l2.346-1.313a.981.981 0 0 1 1.315.353.92.92 0 0 1-.343 1.28l-2.346 1.313z"/>
</svg>
