<svg xmlns="http://www.w3.org/2000/svg" width="29" height="25" viewBox="0 0 29 25">
    <path fill="#45E9A3" fill-rule="nonzero" d="M29 20v2a3 3 0 0 1-3 3h-9v-3a3 3 0 0 1 3-3h2v-5.5a3.5 3.5 0 1 1 7 0V20zM7 19h2a3 3 0 0 1 3 3v3H3a3 3 0 0 1-3-3v-8.5a3.5 3.5 0 1 1 7 0V19zM3.5 9a3.5 3.5 0 1 1 0-7 3.5 3.5 0 0 1 0 7zm22 0a3.5 3.5 0 1 1 0-7 3.5 3.5 0 0 1 0 7zm-11-2a3.5 3.5 0 1 1 0-7 3.5 3.5 0 0 1 0 7zM17 8a3 3 0 0 1 3 3v3a1 1 0 0 1-1 1h-9a1 1 0 0 1-1-1v-3a3 3 0 0 1 3-3h5zm2 8a1 1 0 1 1 0 2h-9a1 1 0 1 1 0-2h9z"/>
</svg>
