<svg xmlns="http://www.w3.org/2000/svg" width="40" height="40" viewBox="0 0 40 40">
    <path fill="#9B9B9B" fill-rule="evenodd" d="M0 20C0 8.954 8.954 0 20 0s20 8.954 20 20-8.954 20-20 20S0 31.046 0 20zm32.733 6.836a1.8 1.8 0 0 0-.09-.17c-.454-.82-1.323-1.824-2.605-3.016l-.027-.027-.014-.014-.014-.013h-.013c-.582-.556-.951-.929-1.106-1.12-.282-.363-.346-.732-.191-1.105.11-.282.518-.877 1.228-1.787.373-.482.669-.868.886-1.16 1.574-2.092 2.256-3.429 2.047-4.01l-.08-.137c-.056-.081-.196-.157-.423-.225-.228-.068-.519-.08-.874-.034l-3.93.027a.51.51 0 0 0-.272.007l-.178.041-.068.035-.054.04a.594.594 0 0 0-.15.144.938.938 0 0 0-.136.238 22.304 22.304 0 0 1-1.46 3.07 29.41 29.41 0 0 1-.929 1.467c-.282.414-.518.719-.709.914a4.907 4.907 0 0 1-.518.47c-.155.119-.273.169-.355.15-.082-.018-.16-.036-.232-.054a.896.896 0 0 1-.307-.334 1.485 1.485 0 0 1-.157-.533 6.074 6.074 0 0 1-.048-.552c-.004-.154-.002-.373.007-.655.01-.282.014-.473.014-.573 0-.346.007-.721.02-1.126l.034-.961c.01-.237.014-.487.014-.751 0-.263-.016-.47-.048-.62a2.103 2.103 0 0 0-.143-.437.732.732 0 0 0-.28-.327 1.568 1.568 0 0 0-.456-.185c-.482-.11-1.097-.168-1.842-.178-1.692-.018-2.779.092-3.261.328a1.83 1.83 0 0 0-.519.41c-.163.2-.186.309-.068.327.546.082.932.277 1.16.586l.082.165c.064.117.127.327.19.627.064.3.105.632.123.996.046.664.046 1.232 0 1.705a19.69 19.69 0 0 1-.13 1.105c-.04.264-.101.478-.183.642a2.591 2.591 0 0 1-.165.3.234.234 0 0 1-.067.068 1.012 1.012 0 0 1-.37.069c-.126 0-.28-.064-.463-.192a3.272 3.272 0 0 1-.566-.526 7.013 7.013 0 0 1-.662-.934c-.245-.4-.5-.873-.764-1.419l-.218-.396a32.223 32.223 0 0 1-.56-1.112 21.19 21.19 0 0 1-.627-1.412.906.906 0 0 0-.328-.436l-.067-.041a.981.981 0 0 0-.219-.116c-.1-.041-.204-.07-.314-.089l-3.738.027c-.382 0-.641.087-.778.26l-.055.081a.446.446 0 0 0-.04.219c0 .1.027.223.082.368a44.997 44.997 0 0 0 1.78 3.71c.641 1.193 1.198 2.152 1.67 2.88.474.728.956 1.415 1.447 2.06.492.646.817 1.06.976 1.242a9 9 0 0 0 .375.409l.341.328c.218.218.539.48.963.784.422.305.89.605 1.404.9a7.637 7.637 0 0 0 1.795.724 6.185 6.185 0 0 0 1.992.224h1.57c.317-.027.559-.127.722-.3l.054-.067a.902.902 0 0 0 .102-.253c.032-.114.048-.239.048-.375-.009-.391.02-.744.089-1.058.067-.313.145-.55.232-.709.087-.16.184-.293.293-.402a1.16 1.16 0 0 1 .233-.198.914.914 0 0 1 .108-.048c.219-.073.475-.002.771.212.296.214.573.477.833.791.26.314.57.667.934 1.057.364.391.683.682.955.874l.273.163c.182.11.418.21.71.3.29.092.545.115.763.07l3.494-.056c.345 0 .613-.057.804-.17.191-.114.304-.24.341-.375.037-.137.038-.291.007-.465a1.77 1.77 0 0 0-.095-.361z"/>
</svg>
