<svg xmlns="http://www.w3.org/2000/svg" width="60" height="60" viewBox="0 0 60 60">
    <g fill="none" fill-rule="evenodd">
        <path fill="#0071A1" d="M29.838 0C13.36 0 .001 13.36.001 29.84S13.36 59.677 29.838 59.677c16.48 0 29.838-13.36 29.838-29.838C59.676 13.359 46.317 0 29.838 0z"/>
        <path fill="#FFFFFE" d="M20.501 14C22.431 14 24 15.618 24 17.61c0 1.993-1.569 3.611-3.499 3.611-1.935 0-3.501-1.618-3.501-3.611 0-1.992 1.566-3.61 3.501-3.61zm-3.02 30h6.038V23.96H17.48V44zM27 23.51h5.844v2.8h.081c.814-1.612 2.802-3.31 5.766-3.31C44.86 23 46 27.244 46 32.76V44h-6.089v-9.965c0-2.376-.042-5.432-3.166-5.432-3.17 0-3.657 2.588-3.657 5.26V44H27V23.51"/>
    </g>
</svg>
