<svg xmlns="http://www.w3.org/2000/svg" xmlns:xlink="http://www.w3.org/1999/xlink" width="60" height="60" viewBox="0 0 60 60">
    <defs>
        <path id="a" d="M0 30C0 13.431 13.431 0 30 0c16.569 0 30 13.431 30 30 0 16.569-13.431 30-30 30C13.431 60 0 46.569 0 30zm30.002-16c-4.346 0-4.891.019-6.598.097-1.703.078-2.866.347-3.883.743a7.835 7.835 0 0 0-2.835 1.845 7.854 7.854 0 0 0-1.846 2.834c-.397 1.018-.667 2.18-.744 3.883C14.02 25.11 14 25.655 14 30c0 4.346.02 4.89.097 6.596.078 1.703.348 2.866.743 3.883a7.84 7.84 0 0 0 1.845 2.835 7.835 7.835 0 0 0 2.834 1.846c1.018.396 2.18.666 3.884.744C25.109 45.98 25.654 46 30 46c4.345 0 4.889-.019 6.596-.096 1.703-.078 2.867-.348 3.885-.744a7.828 7.828 0 0 0 2.832-1.846 7.854 7.854 0 0 0 1.847-2.834c.393-1.018.663-2.181.743-3.884C45.98 34.89 46 34.346 46 30c0-4.345-.02-4.89-.097-6.597-.08-1.704-.35-2.866-.743-3.884a7.853 7.853 0 0 0-1.847-2.834 7.82 7.82 0 0 0-2.833-1.845c-1.02-.396-2.183-.665-3.887-.743-1.706-.078-2.25-.097-6.597-.097h.006zm-1.436 2.883h1.436c4.272 0 4.778.016 6.465.092 1.56.072 2.407.332 2.97.551.747.29 1.28.637 1.84 1.197s.906 1.093 1.197 1.84c.219.563.48 1.41.55 2.97.077 1.687.094 2.193.094 6.463s-.017 4.777-.093 6.464c-.072 1.56-.332 2.407-.551 2.97a4.947 4.947 0 0 1-1.198 1.838c-.56.56-1.091.907-1.838 1.197-.564.22-1.411.48-2.971.551-1.687.077-2.193.093-6.465.093-4.273 0-4.78-.016-6.466-.093-1.56-.072-2.407-.333-2.97-.552a4.956 4.956 0 0 1-1.841-1.196 4.96 4.96 0 0 1-1.197-1.84c-.22-.563-.48-1.41-.551-2.97-.077-1.686-.092-2.193-.092-6.466 0-4.272.015-4.776.092-6.463.071-1.56.332-2.407.55-2.97.29-.747.638-1.28 1.198-1.84a4.966 4.966 0 0 1 1.84-1.198c.564-.22 1.411-.48 2.971-.552 1.476-.066 2.048-.086 5.03-.09v.004zm9.976 2.657a1.92 1.92 0 1 0 0 3.84 1.92 1.92 0 0 0 0-3.84zm-8.54 2.243a8.217 8.217 0 1 0 0 16.435 8.217 8.217 0 0 0 0-16.435zm0 2.884a5.333 5.333 0 1 1 0 10.667 5.333 5.333 0 0 1 0-10.667z"/>
        <linearGradient id="b" x1="66.814%" x2="98.343%" y1="-10.507%" y2="111.451%">
            <stop offset="0%" stop-color="#4E60D3"/>
            <stop offset="14.276%" stop-color="#913BAF"/>
            <stop offset="76.146%" stop-color="#D52D88"/>
            <stop offset="100%" stop-color="#F26D4F"/>
        </linearGradient>
        <radialGradient id="d" cx="30.274%" cy="100%" r="125.288%" fx="30.274%" fy="100%" gradientTransform="matrix(.63106 .39679 -.19632 .6606 .308 .22)">
            <stop offset="0%" stop-color="#FED276"/>
            <stop offset="17.024%" stop-color="#FDBD61" stop-opacity=".975"/>
            <stop offset="45.408%" stop-color="#F6804D"/>
            <stop offset="100%" stop-color="#E83D5C" stop-opacity="0"/>
        </radialGradient>
    </defs>
    <g fill="none" fill-rule="evenodd">
        <mask id="c" fill="#fff">
            <use xlink:href="#a"/>
        </mask>
        <use fill="#4D4D4D" xlink:href="#a"/>
        <path fill="url(#b)" d="M45.703 0C54.375 0 60 5.625 60 14.297v31.406C60 54.375 54.375 60 45.703 60H14.297C5.625 60 0 54.375 0 45.703V14.297C0 5.625 5.625 0 14.297 0h31.406z" mask="url(#c)"/>
        <path fill="url(#d)" d="M60 49.77C58.487 56.092 53.336 60 46.053 60H14.406C5.668 60 0 54.375 0 45.703V20.924c4.808-1.407 9.997-2.174 15.41-2.174 22.687 0 41.457 13.48 44.59 31.02z" mask="url(#c)"/>
    </g>
</svg>
