<svg xmlns="http://www.w3.org/2000/svg" width="220" height="41" viewBox="0 0 220 41">
    <path fill="#000" fill-rule="evenodd" d="M9.565 30.092c1.356 0 2.437-.503 3.247-1.51.808-1.008 1.213-2.282 1.213-3.822 0-.214-.013-.427-.035-.64-1.38 1.47-3.083 2.204-5.103 2.204-2.594 0-4.724-.889-6.389-2.666C.832 21.88 0 19.665 0 17.01c0-2.654.832-4.876 2.498-6.665C4.163 8.555 6.293 7.66 8.887 7.66c.807 0 1.617.16 2.426.48.808.32 1.415.646 1.82.978l.607.462v-1.6h5.389v16.033c0 3.342-.887 5.949-2.66 7.821-1.772 1.872-4.05 2.808-6.833 2.808-2.166 0-4.063-.545-5.693-1.635-1.63-1.09-2.837-2.654-3.622-4.692l4.604-1.99c.928 2.511 2.474 3.767 4.64 3.767zm24.91-17.419c-1.596 0-2.785.563-3.57 1.688-.785 1.127-1.177 2.613-1.177 4.462v8.283h-5.353V7.981h5.353v2.523c.689-.782 1.552-1.445 2.587-1.99 1.035-.545 2.088-.83 3.158-.854l.036 5.013h-1.035zm16.611 9.58c.964-.509 1.731-1.19 2.302-2.044l3.069 3.306c-2.45 2.584-5.216 3.875-8.297 3.875-3.082 0-5.538-.935-7.37-2.808-1.832-1.872-2.748-4.26-2.748-7.163 0-2.903 1.005-5.256 3.016-7.057 2.01-1.8 4.324-2.702 6.941-2.702s4.806.736 6.567 2.205c1.76 1.469 2.712 3.365 2.854 5.687v.676L44.645 21.49c.808 1.02 1.962 1.53 3.462 1.53 1.021 0 2.016-.256 2.98-.765zm19.218.765c1.022 0 2.017-.255 2.98-.764.963-.51 1.73-1.192 2.301-2.045l3.07 3.306c-2.451 2.584-5.217 3.875-8.298 3.875-3.081 0-5.538-.935-7.37-2.808-1.832-1.872-2.747-4.26-2.747-7.163 0-2.903 1.004-5.256 3.015-7.057 2.01-1.8 4.324-2.702 6.942-2.702 2.616 0 4.805.736 6.567 2.205 1.76 1.469 2.711 3.365 2.854 5.687v.676L66.842 21.49c.809 1.02 1.963 1.53 3.462 1.53zm18.486-6.577v10.665h-5.353V7.98h5.353v2.134c1.617-1.636 3.437-2.454 5.46-2.454 2.021 0 3.717.711 5.085 2.133 1.368 1.422 2.052 3.319 2.052 5.689v11.624h-5.353V16.3c0-2.938-1.083-4.408-3.247-4.408-1.07 0-2.005.385-2.802 1.155-.797.77-1.195 1.902-1.195 3.395zm28.621-8.78c2.235 0 4.23.93 5.977 2.79 1.749 1.86 2.623 4.2 2.623 7.021 0 2.82-.874 5.178-2.623 7.074-1.748 1.897-3.795 2.844-6.138 2.844s-4.228-.935-5.656-2.808v9.421h-5.354V7.981h5.354v2.133c1.642-1.636 3.58-2.454 5.817-2.454zm14.382 16.992c-1.832-1.825-2.748-4.224-2.748-7.199 0-2.974.939-5.35 2.819-7.127 1.88-1.778 4.056-2.667 6.531-2.667 1.928 0 3.605.64 5.032 1.92v-1.6h5.389v19.126h-5.389v-1.564c-1.523 1.232-3.26 1.848-5.21 1.848-2.452 0-4.592-.912-6.424-2.737zm27.622-8.212v10.665h-5.353V7.98h5.353v2.134c1.617-1.636 3.437-2.454 5.46-2.454 2.021 0 3.717.711 5.085 2.133 1.368 1.422 2.052 3.319 2.052 5.689v11.624h-5.353V16.3c0-2.938-1.083-4.408-3.247-4.408-1.07 0-2.005.385-2.801 1.155-.798.77-1.196 1.902-1.196 3.395zm25.141 10.95c-2.272 0-4.3-.96-6.084-2.88-1.785-1.92-2.677-4.302-2.677-7.145 0-2.844.868-5.173 2.605-6.986 1.737-1.813 3.771-2.72 6.103-2.72 2.33 0 4.234.818 5.71 2.453V.728h5.353v26.378h-5.353v-2.524c-1.499 1.872-3.385 2.808-5.657 2.808zm17.862-2.738c-1.832-1.825-2.748-4.224-2.748-7.199 0-2.974.939-5.35 2.819-7.127 1.88-1.778 4.056-2.667 6.531-2.667 1.928 0 3.605.64 5.032 1.92v-1.6h5.389v19.126h-5.389v-1.564c-1.523 1.232-3.26 1.848-5.21 1.848-2.452 0-4.592-.912-6.424-2.737zm-31.82 9.257c-.822 0-1.512.265-2.07.794-.56.53-.838 1.228-.838 2.098 0 .868.237 1.558.709 2.068.473.51 1.126.764 1.96.764.833 0 1.518-.328 2.053-.985v-1.61h1.373v3.905h-1.373v-.684a3.672 3.672 0 0 1-2.152.684c-1.186 0-2.15-.389-2.89-1.165-.741-.776-1.111-1.771-1.111-2.984 0-1.212.413-2.22 1.239-3.024.826-.803 1.824-1.205 2.995-1.205 1.17 0 2.144.34 2.92 1.02l-.733 1.042a2.86 2.86 0 0 0-.96-.561 3.626 3.626 0 0 0-1.122-.157zm7.258 6.953v-4.658c0-1.19.302-2.093.907-2.712.605-.618 1.448-.926 2.53-.926 1.082 0 1.923.304 2.524.915.601.61.902 1.494.902 2.653v4.728h-1.385v-2.005h-4.106v2.005h-1.372zm17.228-4.751v4.75h-1.396v-4.75c0-1.468-.508-2.201-1.524-2.201-.474 0-.855.161-1.145.486-.291.324-.437.826-.437 1.506v4.96h-1.372v-8.1h1.372v.649c.201-.278.466-.489.791-.631.325-.143.68-.215 1.064-.215s.76.13 1.129.389c.368.258.642.62.82 1.082.2-.47.528-.834.977-1.089.45-.255.93-.382 1.442-.382.876 0 1.555.266 2.036.8.48.532.721 1.247.721 2.144v5.352h-1.373v-4.901c0-1.367-.527-2.05-1.581-2.05-.481 0-.855.204-1.123.614-.267.409-.401.938-.401 1.587zm14.691-3.349v1.287h-4.34v2.143h3.898v1.217h-3.897v2.166h4.478v1.287h-5.85v-8.1h5.711zm6.683 1.066c-.4 0-.728.082-.983.243-.256.163-.384.408-.384.736 0 .329.128.58.384.753.255.174.8.361 1.634.562.833.201 1.462.483 1.884.846.423.363.634.898.634 1.606 0 .706-.267 1.28-.803 1.72-.535.44-1.236.66-2.106.66-1.271 0-2.399-.437-3.384-1.309l.86-1.031c.822.71 1.676 1.065 2.56 1.065.442 0 .793-.093 1.053-.283.26-.189.39-.441.39-.753a.845.845 0 0 0-.367-.73c-.245-.174-.665-.333-1.263-.475-.596-.143-1.05-.275-1.36-.394a3.058 3.058 0 0 1-.826-.47c-.48-.363-.721-.919-.721-1.668 0-.75.273-1.327.82-1.733.546-.405 1.223-.607 2.03-.607.52 0 1.034.084 1.547.254.512.17.954.41 1.326.719l-.733 1.03c-.24-.215-.566-.393-.977-.532a3.777 3.777 0 0 0-1.215-.209zm-37.23 2.318v1.437h4.106v-1.38c0-.748-.182-1.328-.546-1.738-.365-.41-.869-.614-1.513-.614-.643 0-1.146.198-1.506.592-.36.393-.54.96-.54 1.703zM44.805 13.562c-1.011.853-1.517 2.039-1.517 3.555 0 .284.012.497.036.64l8.352-3.377c-.31-1.4-1.441-2.098-3.391-2.098-1.31 0-2.47.427-3.48 1.28zm22.197 0c-1.011.853-1.516 2.039-1.516 3.555 0 .284.012.497.036.64l8.35-3.377c-.309-1.4-1.44-2.098-3.39-2.098-1.309 0-2.469.427-3.48 1.28zm-61.684 3.27c0 1.328.375 2.466 1.124 3.413.749.949 1.76 1.422 3.033 1.422 1.272 0 2.302-.456 3.087-1.369.785-.912 1.178-2.062 1.178-3.448 0-1.386-.393-2.56-1.178-3.52-.785-.96-1.815-1.439-3.087-1.439-1.273 0-2.284.492-3.033 1.475-.75.984-1.124 2.14-1.124 3.466zm106.204.73c0 1.551.435 2.82 1.303 3.803.868.983 1.92 1.475 3.159 1.475 1.236 0 2.319-.492 3.247-1.475.928-.983 1.392-2.245 1.392-3.786 0-1.54-.453-2.832-1.356-3.875-.906-1.043-1.987-1.564-3.248-1.564-1.26 0-2.326.515-3.194 1.546-.868 1.031-1.303 2.323-1.303 3.875zm22.912.017c0 1.564.464 2.838 1.391 3.822.929.983 2.01 1.475 3.248 1.475 1.236 0 2.284-.492 3.141-1.475.856-.984 1.284-2.252 1.284-3.805 0-1.551-.428-2.85-1.284-3.892-.857-1.042-1.916-1.564-3.176-1.564-1.262 0-2.344.515-3.249 1.546-.904 1.03-1.355 2.33-1.355 3.893zm70.625 0c0 1.564.464 2.838 1.391 3.822.929.983 2.01 1.475 3.248 1.475 1.236 0 2.284-.492 3.141-1.475.856-.984 1.284-2.252 1.284-3.805 0-1.551-.428-2.85-1.284-3.892-.857-1.042-1.916-1.564-3.176-1.564-1.262 0-2.344.515-3.248 1.546-.905 1.03-1.356 2.33-1.356 3.893zm-23.875 0c0 1.54.464 2.803 1.392 3.786.928.984 2.01 1.475 3.248 1.475 1.236 0 2.288-.491 3.158-1.475.867-.983 1.302-2.251 1.302-3.804 0-1.552-.435-2.844-1.302-3.875-.87-1.031-1.934-1.546-3.194-1.546-1.262 0-2.344.522-3.248 1.564-.904 1.043-1.356 2.334-1.356 3.875z"/>
</svg>
